<svg width="1200" height="300" viewBox="0 0 1200 300" fill="none" xmlns="http://www.w3.org/2000/svg">
<rect width="1200" height="300" fill="white"/>
<path d="M440 185V122.6H456.512V145.832H475.136V122.6H491.648V185H475.136V160.232H456.512V185H440Z" fill="black"/>
<path d="M510.419 113H544.194L530.693 150.177H523.921L510.419 113Z" fill="#DA2F2F"/>
<path d="M526.999 187.304C530.071 187.304 533.047 186.76 535.927 185.672C538.807 184.52 541.367 182.888 543.607 180.776C545.783 178.6 547.543 175.944 548.887 172.808C550.167 169.672 550.807 166.12 550.807 162.152C550.807 158.184 550.167 154.632 548.887 151.496C547.543 148.36 545.783 145.736 543.607 143.624C541.367 141.448 538.807 139.816 535.927 138.728C533.047 137.576 530.071 137 526.999 137C523.927 137 520.983 137.576 518.167 138.728C515.287 139.816 512.759 141.448 510.583 143.624C508.343 145.736 506.551 148.36 505.207 151.496C503.863 154.632 503.191 158.184 503.191 162.152C503.191 166.12 503.863 169.672 505.207 172.808C506.551 175.944 508.343 178.6 510.583 180.776C512.759 182.888 515.287 184.52 518.167 185.672C520.983 186.76 523.927 187.304 526.999 187.304ZM526.999 174.056C524.503 174.056 522.743 173 521.719 170.888C520.631 168.712 520.087 165.8 520.087 162.152C520.087 158.504 520.631 155.624 521.719 153.512C522.743 151.336 524.503 150.248 526.999 150.248C529.495 150.248 531.287 151.336 532.375 153.512C533.399 155.624 533.911 158.504 533.911 162.152C533.911 165.8 533.399 168.712 532.375 170.888C531.287 173 529.495 174.056 526.999 174.056Z" fill="#242424"/>
<path d="M560.453 185V137H573.893L575.045 142.76H575.429C577.349 140.904 579.525 139.304 581.957 137.96C584.453 136.552 587.333 135.848 590.597 135.848C595.845 135.848 599.653 137.64 602.021 141.224C604.389 144.744 605.573 149.48 605.573 155.432V185H589.061V157.544C589.061 154.472 588.677 152.424 587.909 151.4C587.141 150.376 585.925 149.864 584.261 149.864C582.725 149.864 581.445 150.184 580.421 150.824C579.397 151.464 578.245 152.36 576.965 153.512V185H560.453Z" fill="black"/>
<path d="M616.328 185V118.184H632.456V153.704H632.84L646.088 137H663.944L646.856 156.968L664.904 185H647.048L637.448 167.912L632.456 173.48V185H616.328Z" fill="black"/>
<path d="M685.674 186.152C682.602 186.152 679.338 185.544 675.882 184.328C672.49 183.112 669.546 181.48 667.05 179.432L674.346 169.256C678.698 172.456 682.602 174.056 686.058 174.056C687.786 174.056 689.002 173.832 689.706 173.384C690.474 172.872 690.858 172.136 690.858 171.176C690.858 170.536 690.602 169.992 690.09 169.544C689.578 169.032 688.874 168.584 687.978 168.2C687.146 167.752 686.186 167.336 685.098 166.952C684.01 166.568 682.858 166.12 681.642 165.608C680.234 165.032 678.794 164.36 677.322 163.592C675.914 162.76 674.634 161.768 673.482 160.616C672.33 159.464 671.37 158.152 670.602 156.68C669.898 155.144 669.546 153.384 669.546 151.4C669.546 149.032 669.994 146.888 670.89 144.968C671.85 143.048 673.162 141.416 674.826 140.072C676.49 138.728 678.474 137.704 680.778 137C683.146 136.232 685.738 135.848 688.554 135.848C692.522 135.848 695.914 136.52 698.73 137.864C701.61 139.144 704.106 140.584 706.218 142.184L698.922 151.976C697.194 150.696 695.498 149.704 693.834 149C692.17 148.296 690.602 147.944 689.13 147.944C686.314 147.944 684.906 148.84 684.906 150.632C684.906 151.272 685.13 151.816 685.578 152.264C686.09 152.712 686.762 153.128 687.594 153.512C688.426 153.896 689.386 154.28 690.474 154.664C691.562 154.984 692.714 155.368 693.93 155.816C695.338 156.328 696.778 156.968 698.25 157.736C699.722 158.504 701.034 159.464 702.186 160.616C703.402 161.704 704.362 163.048 705.066 164.648C705.834 166.184 706.218 168.04 706.218 170.216C706.218 172.456 705.77 174.568 704.874 176.552C703.978 178.472 702.666 180.168 700.938 181.64C699.21 183.048 697.066 184.168 694.506 185C691.946 185.768 689.002 186.152 685.674 186.152Z" fill="black"/>
<path d="M714.152 185.016V175.992H759.848V185.016H714.152Z" fill="#DA2F2F"/>
</svg>
